<svg width="950" height="308" viewBox="0 0 950 308" fill="none" xmlns="http://www.w3.org/2000/svg">
<g clip-path="url(#clip0_1:42)">
<path d="M142.429 44.1528C2.44977 44.1528 0 56.601 0 153.823C0 251.045 2.44977 263.493 142.429 263.493C282.408 263.493 284.858 251.045 284.858 153.823C284.858 56.601 282.408 44.1528 142.429 44.1528ZM188.077 158.58L124.127 188.433C118.529 191.025 113.943 188.12 113.943 181.938V125.707C113.943 119.54 118.529 116.621 124.127 119.213L188.077 149.066C193.675 151.687 193.675 155.959 188.077 158.58Z" fill="black"/>
</g>
<path d="M489.112 82.0216V226H454.04V139.654L421.84 226H393.536L361.131 139.449V226H326.059V82.0216H367.489L407.893 181.699L447.887 82.0216H489.112Z" fill="black"/>
<path d="M584.933 119.916L539.433 226.906H515.513L532.153 189.986L502.643 119.916H527.473L544.243 165.286L560.883 119.916H584.933Z" fill="black"/>
<path d="M676.035 82.0216V110.12H637.887V226H602.816V110.12H564.667V82.0216H676.035Z" fill="black"/>
<path d="M727.595 147.767V224.063H704.213V213.671C701.843 217.044 698.607 219.779 694.506 221.875C690.495 223.881 686.028 224.883 681.106 224.883C675.272 224.883 670.122 223.607 665.655 221.055C661.189 218.411 657.725 214.629 655.264 209.706C652.802 204.784 651.572 198.996 651.572 192.341V147.767H674.816V189.196C674.816 194.301 676.138 198.266 678.781 201.092C681.425 203.918 684.98 205.331 689.446 205.331C694.004 205.331 697.605 203.918 700.248 201.092C702.892 198.266 704.213 194.301 704.213 189.196V147.767H727.595Z" fill="black"/>
<path d="M829.118 152.165C837.458 153.942 844.158 158.113 849.217 164.676C854.276 171.102 856.806 178.486 856.806 186.826C856.806 198.859 852.567 208.43 844.09 215.54C835.749 222.513 824.059 226 809.018 226H741.951V82.0216H806.762C821.392 82.0216 832.81 85.3715 841.013 92.0714C849.354 98.7712 853.524 107.864 853.524 119.349C853.524 127.827 851.268 134.868 846.756 140.474C842.381 146.08 836.501 149.977 829.118 152.165ZM777.023 140.269H799.994C805.737 140.269 810.112 139.039 813.12 136.578C816.265 133.98 817.837 130.219 817.837 125.297C817.837 120.375 816.265 116.615 813.12 114.017C810.112 111.419 805.737 110.12 799.994 110.12H777.023V140.269ZM802.865 197.697C808.745 197.697 813.257 196.398 816.402 193.8C819.683 191.065 821.324 187.168 821.324 182.109C821.324 177.05 819.615 173.085 816.197 170.214C812.915 167.342 808.335 165.906 802.455 165.906H777.023V197.697H802.865Z" fill="black"/>
<path d="M944.941 183.26C944.941 185.448 944.804 187.727 944.531 190.097H891.616C891.98 194.837 893.484 198.483 896.128 201.035C898.862 203.496 902.19 204.727 906.109 204.727C911.943 204.727 915.999 202.266 918.278 197.343H943.163C941.887 202.357 939.563 206.869 936.19 210.88C932.909 214.891 928.761 218.035 923.748 220.314C918.734 222.593 913.128 223.733 906.93 223.733C899.455 223.733 892.801 222.137 886.967 218.947C881.133 215.757 876.575 211.199 873.294 205.274C870.012 199.349 868.371 192.421 868.371 184.491C868.371 176.56 869.966 169.632 873.157 163.707C876.438 157.782 880.996 153.225 886.83 150.034C892.664 146.844 899.364 145.249 906.93 145.249C914.313 145.249 920.876 146.798 926.619 149.897C932.362 152.997 936.828 157.418 940.019 163.16C943.3 168.903 944.941 175.603 944.941 183.26ZM921.013 177.107C921.013 173.096 919.646 169.906 916.911 167.536C914.176 165.166 910.758 163.981 906.656 163.981C902.736 163.981 899.409 165.12 896.675 167.399C894.031 169.678 892.39 172.914 891.752 177.107H921.013Z" fill="black"/>
<defs>
<clipPath id="clip0_1:42">
<rect width="284.858" height="284.858" fill="white" transform="translate(0 11.3943)"/>
</clipPath>
</defs>
</svg>
